<?xml version="1.0" encoding="utf-8" standalone="no"?>
<!DOCTYPE svg PUBLIC "-//W3C//DTD SVG 1.1//EN"
  "http://www.w3.org/Graphics/SVG/1.1/DTD/svg11.dtd">
<!-- Created with matplotlib (https://matplotlib.org/) -->
<svg height="360pt" version="1.1" viewBox="0 0 1152 360" width="1152pt" xmlns="http://www.w3.org/2000/svg" xmlns:xlink="http://www.w3.org/1999/xlink">
 <defs>
  <style type="text/css">
*{stroke-linecap:butt;stroke-linejoin:round;}
  </style>
 </defs>
 <g id="figure_1">
  <g id="patch_1">
   <path d="M 0 360 
L 1152 360 
L 1152 0 
L 0 0 
z
" style="fill:#ffffff;"/>
  </g>
  <g id="axes_1">
   <g id="patch_2">
    <path d="M 69.144 295.356 
L 559.95925 295.356 
L 559.95925 38.144 
L 69.144 38.144 
z
" style="fill:#ffffff;"/>
   </g>
   <g id="patch_3">
    <path clip-path="url(#p8001ab160e)" d="M 69.144 295.356 
L 69.144 38.144 
L 265.4701 38.144 
L 265.4701 295.356 
z
" style="fill:#d55e00;opacity:0.3;stroke:#d55e00;stroke-linejoin:miter;"/>
   </g>
   <g id="patch_4">
    <path clip-path="url(#p8001ab160e)" d="M 265.4701 295.356 
L 265.4701 38.144 
L 559.95925 38.144 
L 559.95925 295.356 
z
" style="fill:#009e73;opacity:0.3;stroke:#009e73;stroke-linejoin:miter;"/>
   </g>
   <g id="matplotlib.axis_1">
    <g id="xtick_1">
     <g id="line2d_1">
      <defs>
       <path d="M 0 0 
L 0 6 
" id="m1594a2d62e" style="stroke:#262626;stroke-width:1.25;"/>
      </defs>
      <g>
       <use style="fill:#262626;stroke:#262626;stroke-width:1.25;" x="69.144" xlink:href="#m1594a2d62e" y="295.356"/>
      </g>
     </g>
     <g id="text_1">
      <text style="fill:#262626;font-family:DejaVu Sans;font-size:15.4px;font-style:normal;font-weight:normal;text-anchor:middle;" transform="rotate(-0, 69.144, 316.557594)" x="69.144" y="316.557594">−1000</text>
     </g>
    </g>
    <g id="xtick_2">
     <g id="line2d_2">
      <g>
       <use style="fill:#262626;stroke:#262626;stroke-width:1.25;" x="167.30705" xlink:href="#m1594a2d62e" y="295.356"/>
      </g>
     </g>
     <g id="text_2">
      <text style="fill:#262626;font-family:DejaVu Sans;font-size:15.4px;font-style:normal;font-weight:normal;text-anchor:middle;" transform="rotate(-0, 167.30705, 316.557594)" x="167.30705" y="316.557594">−500</text>
     </g>
    </g>
    <g id="xtick_3">
     <g id="line2d_3">
      <g>
       <use style="fill:#262626;stroke:#262626;stroke-width:1.25;" x="265.4701" xlink:href="#m1594a2d62e" y="295.356"/>
      </g>
     </g>
     <g id="text_3">
      <text style="fill:#262626;font-family:DejaVu Sans;font-size:15.4px;font-style:normal;font-weight:normal;text-anchor:middle;" transform="rotate(-0, 265.4701, 316.557594)" x="265.4701" y="316.557594">0</text>
     </g>
    </g>
    <g id="xtick_4">
     <g id="line2d_4">
      <g>
       <use style="fill:#262626;stroke:#262626;stroke-width:1.25;" x="363.63315" xlink:href="#m1594a2d62e" y="295.356"/>
      </g>
     </g>
     <g id="text_4">
      <text style="fill:#262626;font-family:DejaVu Sans;font-size:15.4px;font-style:normal;font-weight:normal;text-anchor:middle;" transform="rotate(-0, 363.63315, 316.557594)" x="363.63315" y="316.557594">500</text>
     </g>
    </g>
    <g id="xtick_5">
     <g id="line2d_5">
      <g>
       <use style="fill:#262626;stroke:#262626;stroke-width:1.25;" x="461.7962" xlink:href="#m1594a2d62e" y="295.356"/>
      </g>
     </g>
     <g id="text_5">
      <text style="fill:#262626;font-family:DejaVu Sans;font-size:15.4px;font-style:normal;font-weight:normal;text-anchor:middle;" transform="rotate(-0, 461.7962, 316.557594)" x="461.7962" y="316.557594">1000</text>
     </g>
    </g>
    <g id="xtick_6">
     <g id="line2d_6">
      <g>
       <use style="fill:#262626;stroke:#262626;stroke-width:1.25;" x="559.95925" xlink:href="#m1594a2d62e" y="295.356"/>
      </g>
     </g>
     <g id="text_6">
      <text style="fill:#262626;font-family:DejaVu Sans;font-size:15.4px;font-style:normal;font-weight:normal;text-anchor:middle;" transform="rotate(-0, 559.95925, 316.557594)" x="559.95925" y="316.557594">1500</text>
     </g>
    </g>
    <g id="text_7">
     <text style="fill:#262626;font-family:DejaVu Sans;font-size:16.8px;font-style:normal;font-weight:normal;text-anchor:middle;" transform="rotate(-0, 314.551625, 336.525688)" x="314.551625" y="336.525688">Directional earth mover distance</text>
    </g>
   </g>
   <g id="matplotlib.axis_2">
    <g id="ytick_1">
     <g id="line2d_7">
      <defs>
       <path d="M 0 0 
L -6 0 
" id="mf37d56b419" style="stroke:#262626;stroke-width:1.25;"/>
      </defs>
      <g>
       <use style="fill:#262626;stroke:#262626;stroke-width:1.25;" x="69.144" xlink:href="#mf37d56b419" y="295.356"/>
      </g>
     </g>
     <g id="text_8">
      <text style="fill:#262626;font-family:DejaVu Sans;font-size:15.4px;font-style:normal;font-weight:normal;text-anchor:end;" transform="rotate(-0, 59.644, 301.206797)" x="59.644" y="301.206797">0</text>
     </g>
    </g>
    <g id="ytick_2">
     <g id="line2d_8">
      <g>
       <use style="fill:#262626;stroke:#262626;stroke-width:1.25;" x="69.144" xlink:href="#mf37d56b419" y="249.136413"/>
      </g>
     </g>
     <g id="text_9">
      <text style="fill:#262626;font-family:DejaVu Sans;font-size:15.4px;font-style:normal;font-weight:normal;text-anchor:end;" transform="rotate(-0, 59.644, 254.98721)" x="59.644" y="254.98721">10</text>
     </g>
    </g>
    <g id="ytick_3">
     <g id="line2d_9">
      <g>
       <use style="fill:#262626;stroke:#262626;stroke-width:1.25;" x="69.144" xlink:href="#mf37d56b419" y="202.916827"/>
      </g>
     </g>
     <g id="text_10">
      <text style="fill:#262626;font-family:DejaVu Sans;font-size:15.4px;font-style:normal;font-weight:normal;text-anchor:end;" transform="rotate(-0, 59.644, 208.767623)" x="59.644" y="208.767623">20</text>
     </g>
    </g>
    <g id="ytick_4">
     <g id="line2d_10">
      <g>
       <use style="fill:#262626;stroke:#262626;stroke-width:1.25;" x="69.144" xlink:href="#mf37d56b419" y="156.69724"/>
      </g>
     </g>
     <g id="text_11">
      <text style="fill:#262626;font-family:DejaVu Sans;font-size:15.4px;font-style:normal;font-weight:normal;text-anchor:end;" transform="rotate(-0, 59.644, 162.548037)" x="59.644" y="162.548037">30</text>
     </g>
    </g>
    <g id="ytick_5">
     <g id="line2d_11">
      <g>
       <use style="fill:#262626;stroke:#262626;stroke-width:1.25;" x="69.144" xlink:href="#mf37d56b419" y="110.477653"/>
      </g>
     </g>
     <g id="text_12">
      <text style="fill:#262626;font-family:DejaVu Sans;font-size:15.4px;font-style:normal;font-weight:normal;text-anchor:end;" transform="rotate(-0, 59.644, 116.32845)" x="59.644" y="116.32845">40</text>
     </g>
    </g>
    <g id="ytick_6">
     <g id="line2d_12">
      <g>
       <use style="fill:#262626;stroke:#262626;stroke-width:1.25;" x="69.144" xlink:href="#mf37d56b419" y="64.258066"/>
      </g>
     </g>
     <g id="text_13">
      <text style="fill:#262626;font-family:DejaVu Sans;font-size:15.4px;font-style:normal;font-weight:normal;text-anchor:end;" transform="rotate(-0, 59.644, 70.108863)" x="59.644" y="70.108863">50</text>
     </g>
    </g>
    <g id="text_14">
     <text style="fill:#262626;font-family:DejaVu Sans;font-size:16.8px;font-style:normal;font-weight:normal;text-anchor:middle;" transform="rotate(-90, 32.553625, 166.75)" x="32.553625" y="166.75">Genes (frequency)</text>
    </g>
   </g>
   <g id="patch_5">
    <path clip-path="url(#p8001ab160e)" d="M 69.144 295.356 
L 78.960305 295.356 
L 78.960305 295.356 
L 69.144 295.356 
z
" style="fill:#0072b2;stroke:#ffffff;stroke-linejoin:miter;"/>
   </g>
   <g id="patch_6">
    <path clip-path="url(#p8001ab160e)" d="M 78.960305 295.356 
L 88.77661 295.356 
L 88.77661 295.356 
L 78.960305 295.356 
z
" style="fill:#0072b2;stroke:#ffffff;stroke-linejoin:miter;"/>
   </g>
   <g id="patch_7">
    <path clip-path="url(#p8001ab160e)" d="M 88.77661 295.356 
L 98.592915 295.356 
L 98.592915 295.356 
L 88.77661 295.356 
z
" style="fill:#0072b2;stroke:#ffffff;stroke-linejoin:miter;"/>
   </g>
   <g id="patch_8">
    <path clip-path="url(#p8001ab160e)" d="M 98.592915 295.356 
L 108.40922 295.356 
L 108.40922 295.356 
L 98.592915 295.356 
z
" style="fill:#0072b2;stroke:#ffffff;stroke-linejoin:miter;"/>
   </g>
   <g id="patch_9">
    <path clip-path="url(#p8001ab160e)" d="M 108.40922 295.356 
L 118.225525 295.356 
L 118.225525 290.734041 
L 108.40922 290.734041 
z
" style="fill:#0072b2;stroke:#ffffff;stroke-linejoin:miter;"/>
   </g>
   <g id="patch_10">
    <path clip-path="url(#p8001ab160e)" d="M 118.225525 295.356 
L 128.04183 295.356 
L 128.04183 295.356 
L 118.225525 295.356 
z
" style="fill:#0072b2;stroke:#ffffff;stroke-linejoin:miter;"/>
   </g>
   <g id="patch_11">
    <path clip-path="url(#p8001ab160e)" d="M 128.04183 295.356 
L 137.858135 295.356 
L 137.858135 295.356 
L 128.04183 295.356 
z
" style="fill:#0072b2;stroke:#ffffff;stroke-linejoin:miter;"/>
   </g>
   <g id="patch_12">
    <path clip-path="url(#p8001ab160e)" d="M 137.858135 295.356 
L 147.67444 295.356 
L 147.67444 295.356 
L 137.858135 295.356 
z
" style="fill:#0072b2;stroke:#ffffff;stroke-linejoin:miter;"/>
   </g>
   <g id="patch_13">
    <path clip-path="url(#p8001ab160e)" d="M 147.67444 295.356 
L 157.490745 295.356 
L 157.490745 286.112083 
L 147.67444 286.112083 
z
" style="fill:#0072b2;stroke:#ffffff;stroke-linejoin:miter;"/>
   </g>
   <g id="patch_14">
    <path clip-path="url(#p8001ab160e)" d="M 157.490745 295.356 
L 167.30705 295.356 
L 167.30705 295.356 
L 157.490745 295.356 
z
" style="fill:#0072b2;stroke:#ffffff;stroke-linejoin:miter;"/>
   </g>
   <g id="patch_15">
    <path clip-path="url(#p8001ab160e)" d="M 167.30705 295.356 
L 177.123355 295.356 
L 177.123355 295.356 
L 167.30705 295.356 
z
" style="fill:#0072b2;stroke:#ffffff;stroke-linejoin:miter;"/>
   </g>
   <g id="patch_16">
    <path clip-path="url(#p8001ab160e)" d="M 177.123355 295.356 
L 186.93966 295.356 
L 186.93966 295.356 
L 177.123355 295.356 
z
" style="fill:#0072b2;stroke:#ffffff;stroke-linejoin:miter;"/>
   </g>
   <g id="patch_17">
    <path clip-path="url(#p8001ab160e)" d="M 186.93966 295.356 
L 196.755965 295.356 
L 196.755965 295.356 
L 186.93966 295.356 
z
" style="fill:#0072b2;stroke:#ffffff;stroke-linejoin:miter;"/>
   </g>
   <g id="patch_18">
    <path clip-path="url(#p8001ab160e)" d="M 196.755965 295.356 
L 206.57227 295.356 
L 206.57227 295.356 
L 196.755965 295.356 
z
" style="fill:#0072b2;stroke:#ffffff;stroke-linejoin:miter;"/>
   </g>
   <g id="patch_19">
    <path clip-path="url(#p8001ab160e)" d="M 206.57227 295.356 
L 216.388575 295.356 
L 216.388575 286.112083 
L 206.57227 286.112083 
z
" style="fill:#0072b2;stroke:#ffffff;stroke-linejoin:miter;"/>
   </g>
   <g id="patch_20">
    <path clip-path="url(#p8001ab160e)" d="M 216.388575 295.356 
L 226.20488 295.356 
L 226.20488 295.356 
L 216.388575 295.356 
z
" style="fill:#0072b2;stroke:#ffffff;stroke-linejoin:miter;"/>
   </g>
   <g id="patch_21">
    <path clip-path="url(#p8001ab160e)" d="M 226.20488 295.356 
L 236.021185 295.356 
L 236.021185 295.356 
L 226.20488 295.356 
z
" style="fill:#0072b2;stroke:#ffffff;stroke-linejoin:miter;"/>
   </g>
   <g id="patch_22">
    <path clip-path="url(#p8001ab160e)" d="M 236.021185 295.356 
L 245.83749 295.356 
L 245.83749 286.112083 
L 236.021185 286.112083 
z
" style="fill:#0072b2;stroke:#ffffff;stroke-linejoin:miter;"/>
   </g>
   <g id="patch_23">
    <path clip-path="url(#p8001ab160e)" d="M 245.83749 295.356 
L 255.653795 295.356 
L 255.653795 295.356 
L 245.83749 295.356 
z
" style="fill:#0072b2;stroke:#ffffff;stroke-linejoin:miter;"/>
   </g>
   <g id="patch_24">
    <path clip-path="url(#p8001ab160e)" d="M 255.653795 295.356 
L 265.4701 295.356 
L 265.4701 216.782703 
L 255.653795 216.782703 
z
" style="fill:#0072b2;stroke:#ffffff;stroke-linejoin:miter;"/>
   </g>
   <g id="patch_25">
    <path clip-path="url(#p8001ab160e)" d="M 265.4701 295.356 
L 275.286405 295.356 
L 275.286405 105.855695 
L 265.4701 105.855695 
z
" style="fill:#0072b2;stroke:#ffffff;stroke-linejoin:miter;"/>
   </g>
   <g id="patch_26">
    <path clip-path="url(#p8001ab160e)" d="M 275.286405 295.356 
L 285.10271 295.356 
L 285.10271 198.294868 
L 275.286405 198.294868 
z
" style="fill:#0072b2;stroke:#ffffff;stroke-linejoin:miter;"/>
   </g>
   <g id="patch_27">
    <path clip-path="url(#p8001ab160e)" d="M 285.10271 295.356 
L 294.919015 295.356 
L 294.919015 263.002289 
L 285.10271 263.002289 
z
" style="fill:#0072b2;stroke:#ffffff;stroke-linejoin:miter;"/>
   </g>
   <g id="patch_28">
    <path clip-path="url(#p8001ab160e)" d="M 294.919015 295.356 
L 304.73532 295.356 
L 304.73532 253.758372 
L 294.919015 253.758372 
z
" style="fill:#0072b2;stroke:#ffffff;stroke-linejoin:miter;"/>
   </g>
   <g id="patch_29">
    <path clip-path="url(#p8001ab160e)" d="M 304.73532 295.356 
L 314.551625 295.356 
L 314.551625 263.002289 
L 304.73532 263.002289 
z
" style="fill:#0072b2;stroke:#ffffff;stroke-linejoin:miter;"/>
   </g>
   <g id="patch_30">
    <path clip-path="url(#p8001ab160e)" d="M 314.551625 295.356 
L 324.36793 295.356 
L 324.36793 286.112083 
L 314.551625 286.112083 
z
" style="fill:#0072b2;stroke:#ffffff;stroke-linejoin:miter;"/>
   </g>
   <g id="patch_31">
    <path clip-path="url(#p8001ab160e)" d="M 324.36793 295.356 
L 334.184235 295.356 
L 334.184235 290.734041 
L 324.36793 290.734041 
z
" style="fill:#0072b2;stroke:#ffffff;stroke-linejoin:miter;"/>
   </g>
   <g id="patch_32">
    <path clip-path="url(#p8001ab160e)" d="M 334.184235 295.356 
L 344.00054 295.356 
L 344.00054 290.734041 
L 334.184235 290.734041 
z
" style="fill:#0072b2;stroke:#ffffff;stroke-linejoin:miter;"/>
   </g>
   <g id="patch_33">
    <path clip-path="url(#p8001ab160e)" d="M 344.00054 295.356 
L 353.816845 295.356 
L 353.816845 286.112083 
L 344.00054 286.112083 
z
" style="fill:#0072b2;stroke:#ffffff;stroke-linejoin:miter;"/>
   </g>
   <g id="patch_34">
    <path clip-path="url(#p8001ab160e)" d="M 353.816845 295.356 
L 363.63315 295.356 
L 363.63315 290.734041 
L 353.816845 290.734041 
z
" style="fill:#0072b2;stroke:#ffffff;stroke-linejoin:miter;"/>
   </g>
   <g id="patch_35">
    <path clip-path="url(#p8001ab160e)" d="M 363.63315 295.356 
L 373.449455 295.356 
L 373.449455 281.490124 
L 363.63315 281.490124 
z
" style="fill:#0072b2;stroke:#ffffff;stroke-linejoin:miter;"/>
   </g>
   <g id="patch_36">
    <path clip-path="url(#p8001ab160e)" d="M 373.449455 295.356 
L 383.26576 295.356 
L 383.26576 286.112083 
L 373.449455 286.112083 
z
" style="fill:#0072b2;stroke:#ffffff;stroke-linejoin:miter;"/>
   </g>
   <g id="patch_37">
    <path clip-path="url(#p8001ab160e)" d="M 383.26576 295.356 
L 393.082065 295.356 
L 393.082065 276.868165 
L 383.26576 276.868165 
z
" style="fill:#0072b2;stroke:#ffffff;stroke-linejoin:miter;"/>
   </g>
   <g id="patch_38">
    <path clip-path="url(#p8001ab160e)" d="M 393.082065 295.356 
L 402.89837 295.356 
L 402.89837 276.868165 
L 393.082065 276.868165 
z
" style="fill:#0072b2;stroke:#ffffff;stroke-linejoin:miter;"/>
   </g>
   <g id="patch_39">
    <path clip-path="url(#p8001ab160e)" d="M 402.89837 295.356 
L 412.714675 295.356 
L 412.714675 290.734041 
L 402.89837 290.734041 
z
" style="fill:#0072b2;stroke:#ffffff;stroke-linejoin:miter;"/>
   </g>
   <g id="patch_40">
    <path clip-path="url(#p8001ab160e)" d="M 412.714675 295.356 
L 422.53098 295.356 
L 422.53098 286.112083 
L 412.714675 286.112083 
z
" style="fill:#0072b2;stroke:#ffffff;stroke-linejoin:miter;"/>
   </g>
   <g id="patch_41">
    <path clip-path="url(#p8001ab160e)" d="M 422.53098 295.356 
L 432.347285 295.356 
L 432.347285 290.734041 
L 422.53098 290.734041 
z
" style="fill:#0072b2;stroke:#ffffff;stroke-linejoin:miter;"/>
   </g>
   <g id="patch_42">
    <path clip-path="url(#p8001ab160e)" d="M 432.347285 295.356 
L 442.16359 295.356 
L 442.16359 281.490124 
L 432.347285 281.490124 
z
" style="fill:#0072b2;stroke:#ffffff;stroke-linejoin:miter;"/>
   </g>
   <g id="patch_43">
    <path clip-path="url(#p8001ab160e)" d="M 442.16359 295.356 
L 451.979895 295.356 
L 451.979895 295.356 
L 442.16359 295.356 
z
" style="fill:#0072b2;stroke:#ffffff;stroke-linejoin:miter;"/>
   </g>
   <g id="patch_44">
    <path clip-path="url(#p8001ab160e)" d="M 451.979895 295.356 
L 461.7962 295.356 
L 461.7962 281.490124 
L 451.979895 281.490124 
z
" style="fill:#0072b2;stroke:#ffffff;stroke-linejoin:miter;"/>
   </g>
   <g id="patch_45">
    <path clip-path="url(#p8001ab160e)" d="M 461.7962 295.356 
L 471.612505 295.356 
L 471.612505 290.734041 
L 461.7962 290.734041 
z
" style="fill:#0072b2;stroke:#ffffff;stroke-linejoin:miter;"/>
   </g>
   <g id="patch_46">
    <path clip-path="url(#p8001ab160e)" d="M 471.612505 295.356 
L 481.42881 295.356 
L 481.42881 290.734041 
L 471.612505 290.734041 
z
" style="fill:#0072b2;stroke:#ffffff;stroke-linejoin:miter;"/>
   </g>
   <g id="patch_47">
    <path clip-path="url(#p8001ab160e)" d="M 481.42881 295.356 
L 491.245115 295.356 
L 491.245115 295.356 
L 481.42881 295.356 
z
" style="fill:#0072b2;stroke:#ffffff;stroke-linejoin:miter;"/>
   </g>
   <g id="patch_48">
    <path clip-path="url(#p8001ab160e)" d="M 491.245115 295.356 
L 501.06142 295.356 
L 501.06142 295.356 
L 491.245115 295.356 
z
" style="fill:#0072b2;stroke:#ffffff;stroke-linejoin:miter;"/>
   </g>
   <g id="patch_49">
    <path clip-path="url(#p8001ab160e)" d="M 501.06142 295.356 
L 510.877725 295.356 
L 510.877725 290.734041 
L 501.06142 290.734041 
z
" style="fill:#0072b2;stroke:#ffffff;stroke-linejoin:miter;"/>
   </g>
   <g id="patch_50">
    <path clip-path="url(#p8001ab160e)" d="M 510.877725 295.356 
L 520.69403 295.356 
L 520.69403 295.356 
L 510.877725 295.356 
z
" style="fill:#0072b2;stroke:#ffffff;stroke-linejoin:miter;"/>
   </g>
   <g id="patch_51">
    <path clip-path="url(#p8001ab160e)" d="M 520.69403 295.356 
L 530.510335 295.356 
L 530.510335 290.734041 
L 520.69403 290.734041 
z
" style="fill:#0072b2;stroke:#ffffff;stroke-linejoin:miter;"/>
   </g>
   <g id="patch_52">
    <path clip-path="url(#p8001ab160e)" d="M 530.510335 295.356 
L 540.32664 295.356 
L 540.32664 295.356 
L 530.510335 295.356 
z
" style="fill:#0072b2;stroke:#ffffff;stroke-linejoin:miter;"/>
   </g>
   <g id="patch_53">
    <path clip-path="url(#p8001ab160e)" d="M 540.32664 295.356 
L 550.142945 295.356 
L 550.142945 295.356 
L 540.32664 295.356 
z
" style="fill:#0072b2;stroke:#ffffff;stroke-linejoin:miter;"/>
   </g>
   <g id="patch_54">
    <path clip-path="url(#p8001ab160e)" d="M 550.142945 295.356 
L 559.95925 295.356 
L 559.95925 290.734041 
L 550.142945 290.734041 
z
" style="fill:#0072b2;stroke:#ffffff;stroke-linejoin:miter;"/>
   </g>
   <g id="line2d_13">
    <path clip-path="url(#p8001ab160e)" d="M 265.4701 295.356 
L 265.4701 38.144 
" style="fill:none;stroke:#252525;stroke-dasharray:5.55,2.4;stroke-dashoffset:0;stroke-width:1.5;"/>
   </g>
   <g id="patch_55">
    <path d="M 69.144 295.356 
L 69.144 38.144 
" style="fill:none;stroke:#262626;stroke-linecap:square;stroke-linejoin:miter;stroke-width:1.25;"/>
   </g>
   <g id="patch_56">
    <path d="M 559.95925 295.356 
L 559.95925 38.144 
" style="fill:none;stroke:#262626;stroke-linecap:square;stroke-linejoin:miter;stroke-width:1.25;"/>
   </g>
   <g id="patch_57">
    <path d="M 69.144 295.356 
L 559.95925 295.356 
" style="fill:none;stroke:#262626;stroke-linecap:square;stroke-linejoin:miter;stroke-width:1.25;"/>
   </g>
   <g id="patch_58">
    <path d="M 69.144 38.144 
L 559.95925 38.144 
" style="fill:none;stroke:#262626;stroke-linecap:square;stroke-linejoin:miter;stroke-width:1.25;"/>
   </g>
   <g id="text_15">
    <text style="fill:#262626;font-family:DejaVu Sans;font-size:16.8px;font-style:normal;font-weight:normal;text-anchor:start;" transform="rotate(-0, 83.868458, 66.43732)" x="83.868458" y="66.43732">n=24</text>
   </g>
   <g id="text_16">
    <text style="fill:#262626;font-family:DejaVu Sans;font-size:16.8px;font-style:normal;font-weight:normal;text-anchor:end;" transform="rotate(-0, 545.234792, 66.43732)" x="545.234792" y="66.43732">n=123</text>
   </g>
   <g id="text_17">
    <text style="fill:#262626;font-family:DejaVu Sans;font-size:16.8px;font-style:normal;font-weight:normal;text-anchor:middle;" transform="rotate(-0, 314.551625, 32.144)" x="314.551625" y="32.144">fpa-8 vs Col-0</text>
   </g>
  </g>
  <g id="axes_2">
   <g id="patch_59">
    <path d="M 623.54075 295.356 
L 1114.356 295.356 
L 1114.356 38.144 
L 623.54075 38.144 
z
" style="fill:#ffffff;"/>
   </g>
   <g id="patch_60">
    <path clip-path="url(#peb3b0c2f05)" d="M 623.54075 295.356 
L 623.54075 38.144 
L 918.0299 38.144 
L 918.0299 295.356 
z
" style="fill:#d55e00;opacity:0.3;stroke:#d55e00;stroke-linejoin:miter;"/>
   </g>
   <g id="patch_61">
    <path clip-path="url(#peb3b0c2f05)" d="M 918.0299 295.356 
L 918.0299 38.144 
L 1114.356 38.144 
L 1114.356 295.356 
z
" style="fill:#009e73;opacity:0.3;stroke:#009e73;stroke-linejoin:miter;"/>
   </g>
   <g id="matplotlib.axis_3">
    <g id="xtick_7">
     <g id="line2d_14">
      <g>
       <use style="fill:#262626;stroke:#262626;stroke-width:1.25;" x="623.54075" xlink:href="#m1594a2d62e" y="295.356"/>
      </g>
     </g>
     <g id="text_18">
      <text style="fill:#262626;font-family:DejaVu Sans;font-size:15.4px;font-style:normal;font-weight:normal;text-anchor:middle;" transform="rotate(-0, 623.54075, 316.557594)" x="623.54075" y="316.557594">−1500</text>
     </g>
    </g>
    <g id="xtick_8">
     <g id="line2d_15">
      <g>
       <use style="fill:#262626;stroke:#262626;stroke-width:1.25;" x="721.7038" xlink:href="#m1594a2d62e" y="295.356"/>
      </g>
     </g>
     <g id="text_19">
      <text style="fill:#262626;font-family:DejaVu Sans;font-size:15.4px;font-style:normal;font-weight:normal;text-anchor:middle;" transform="rotate(-0, 721.7038, 316.557594)" x="721.7038" y="316.557594">−1000</text>
     </g>
    </g>
    <g id="xtick_9">
     <g id="line2d_16">
      <g>
       <use style="fill:#262626;stroke:#262626;stroke-width:1.25;" x="819.86685" xlink:href="#m1594a2d62e" y="295.356"/>
      </g>
     </g>
     <g id="text_20">
      <text style="fill:#262626;font-family:DejaVu Sans;font-size:15.4px;font-style:normal;font-weight:normal;text-anchor:middle;" transform="rotate(-0, 819.86685, 316.557594)" x="819.86685" y="316.557594">−500</text>
     </g>
    </g>
    <g id="xtick_10">
     <g id="line2d_17">
      <g>
       <use style="fill:#262626;stroke:#262626;stroke-width:1.25;" x="918.0299" xlink:href="#m1594a2d62e" y="295.356"/>
      </g>
     </g>
     <g id="text_21">
      <text style="fill:#262626;font-family:DejaVu Sans;font-size:15.4px;font-style:normal;font-weight:normal;text-anchor:middle;" transform="rotate(-0, 918.0299, 316.557594)" x="918.0299" y="316.557594">0</text>
     </g>
    </g>
    <g id="xtick_11">
     <g id="line2d_18">
      <g>
       <use style="fill:#262626;stroke:#262626;stroke-width:1.25;" x="1016.19295" xlink:href="#m1594a2d62e" y="295.356"/>
      </g>
     </g>
     <g id="text_22">
      <text style="fill:#262626;font-family:DejaVu Sans;font-size:15.4px;font-style:normal;font-weight:normal;text-anchor:middle;" transform="rotate(-0, 1016.19295, 316.557594)" x="1016.19295" y="316.557594">500</text>
     </g>
    </g>
    <g id="xtick_12">
     <g id="line2d_19">
      <g>
       <use style="fill:#262626;stroke:#262626;stroke-width:1.25;" x="1114.356" xlink:href="#m1594a2d62e" y="295.356"/>
      </g>
     </g>
     <g id="text_23">
      <text style="fill:#262626;font-family:DejaVu Sans;font-size:15.4px;font-style:normal;font-weight:normal;text-anchor:middle;" transform="rotate(-0, 1114.356, 316.557594)" x="1114.356" y="316.557594">1000</text>
     </g>
    </g>
    <g id="text_24">
     <text style="fill:#262626;font-family:DejaVu Sans;font-size:16.8px;font-style:normal;font-weight:normal;text-anchor:middle;" transform="rotate(-0, 868.948375, 336.525688)" x="868.948375" y="336.525688">Directional earth mover distance</text>
    </g>
   </g>
   <g id="matplotlib.axis_4">
    <g id="ytick_7">
     <g id="line2d_20">
      <g>
       <use style="fill:#262626;stroke:#262626;stroke-width:1.25;" x="623.54075" xlink:href="#mf37d56b419" y="295.356"/>
      </g>
     </g>
    </g>
    <g id="ytick_8">
     <g id="line2d_21">
      <g>
       <use style="fill:#262626;stroke:#262626;stroke-width:1.25;" x="623.54075" xlink:href="#mf37d56b419" y="249.136413"/>
      </g>
     </g>
    </g>
    <g id="ytick_9">
     <g id="line2d_22">
      <g>
       <use style="fill:#262626;stroke:#262626;stroke-width:1.25;" x="623.54075" xlink:href="#mf37d56b419" y="202.916827"/>
      </g>
     </g>
    </g>
    <g id="ytick_10">
     <g id="line2d_23">
      <g>
       <use style="fill:#262626;stroke:#262626;stroke-width:1.25;" x="623.54075" xlink:href="#mf37d56b419" y="156.69724"/>
      </g>
     </g>
    </g>
    <g id="ytick_11">
     <g id="line2d_24">
      <g>
       <use style="fill:#262626;stroke:#262626;stroke-width:1.25;" x="623.54075" xlink:href="#mf37d56b419" y="110.477653"/>
      </g>
     </g>
    </g>
    <g id="ytick_12">
     <g id="line2d_25">
      <g>
       <use style="fill:#262626;stroke:#262626;stroke-width:1.25;" x="623.54075" xlink:href="#mf37d56b419" y="64.258066"/>
      </g>
     </g>
    </g>
   </g>
   <g id="patch_62">
    <path clip-path="url(#peb3b0c2f05)" d="M 623.54075 295.356 
L 633.357055 295.356 
L 633.357055 295.356 
L 623.54075 295.356 
z
" style="fill:#0072b2;stroke:#ffffff;stroke-linejoin:miter;"/>
   </g>
   <g id="patch_63">
    <path clip-path="url(#peb3b0c2f05)" d="M 633.357055 295.356 
L 643.17336 295.356 
L 643.17336 286.112083 
L 633.357055 286.112083 
z
" style="fill:#0072b2;stroke:#ffffff;stroke-linejoin:miter;"/>
   </g>
   <g id="patch_64">
    <path clip-path="url(#peb3b0c2f05)" d="M 643.17336 295.356 
L 652.989665 295.356 
L 652.989665 295.356 
L 643.17336 295.356 
z
" style="fill:#0072b2;stroke:#ffffff;stroke-linejoin:miter;"/>
   </g>
   <g id="patch_65">
    <path clip-path="url(#peb3b0c2f05)" d="M 652.989665 295.356 
L 662.80597 295.356 
L 662.80597 290.734041 
L 652.989665 290.734041 
z
" style="fill:#0072b2;stroke:#ffffff;stroke-linejoin:miter;"/>
   </g>
   <g id="patch_66">
    <path clip-path="url(#peb3b0c2f05)" d="M 662.80597 295.356 
L 672.622275 295.356 
L 672.622275 290.734041 
L 662.80597 290.734041 
z
" style="fill:#0072b2;stroke:#ffffff;stroke-linejoin:miter;"/>
   </g>
   <g id="patch_67">
    <path clip-path="url(#peb3b0c2f05)" d="M 672.622275 295.356 
L 682.43858 295.356 
L 682.43858 295.356 
L 672.622275 295.356 
z
" style="fill:#0072b2;stroke:#ffffff;stroke-linejoin:miter;"/>
   </g>
   <g id="patch_68">
    <path clip-path="url(#peb3b0c2f05)" d="M 682.43858 295.356 
L 692.254885 295.356 
L 692.254885 290.734041 
L 682.43858 290.734041 
z
" style="fill:#0072b2;stroke:#ffffff;stroke-linejoin:miter;"/>
   </g>
   <g id="patch_69">
    <path clip-path="url(#peb3b0c2f05)" d="M 692.254885 295.356 
L 702.07119 295.356 
L 702.07119 295.356 
L 692.254885 295.356 
z
" style="fill:#0072b2;stroke:#ffffff;stroke-linejoin:miter;"/>
   </g>
   <g id="patch_70">
    <path clip-path="url(#peb3b0c2f05)" d="M 702.07119 295.356 
L 711.887495 295.356 
L 711.887495 295.356 
L 702.07119 295.356 
z
" style="fill:#0072b2;stroke:#ffffff;stroke-linejoin:miter;"/>
   </g>
   <g id="patch_71">
    <path clip-path="url(#peb3b0c2f05)" d="M 711.887495 295.356 
L 721.7038 295.356 
L 721.7038 295.356 
L 711.887495 295.356 
z
" style="fill:#0072b2;stroke:#ffffff;stroke-linejoin:miter;"/>
   </g>
   <g id="patch_72">
    <path clip-path="url(#peb3b0c2f05)" d="M 721.7038 295.356 
L 731.520105 295.356 
L 731.520105 281.490124 
L 721.7038 281.490124 
z
" style="fill:#0072b2;stroke:#ffffff;stroke-linejoin:miter;"/>
   </g>
   <g id="patch_73">
    <path clip-path="url(#peb3b0c2f05)" d="M 731.520105 295.356 
L 741.33641 295.356 
L 741.33641 290.734041 
L 731.520105 290.734041 
z
" style="fill:#0072b2;stroke:#ffffff;stroke-linejoin:miter;"/>
   </g>
   <g id="patch_74">
    <path clip-path="url(#peb3b0c2f05)" d="M 741.33641 295.356 
L 751.152715 295.356 
L 751.152715 290.734041 
L 741.33641 290.734041 
z
" style="fill:#0072b2;stroke:#ffffff;stroke-linejoin:miter;"/>
   </g>
   <g id="patch_75">
    <path clip-path="url(#peb3b0c2f05)" d="M 751.152715 295.356 
L 760.96902 295.356 
L 760.96902 290.734041 
L 751.152715 290.734041 
z
" style="fill:#0072b2;stroke:#ffffff;stroke-linejoin:miter;"/>
   </g>
   <g id="patch_76">
    <path clip-path="url(#peb3b0c2f05)" d="M 760.96902 295.356 
L 770.785325 295.356 
L 770.785325 290.734041 
L 760.96902 290.734041 
z
" style="fill:#0072b2;stroke:#ffffff;stroke-linejoin:miter;"/>
   </g>
   <g id="patch_77">
    <path clip-path="url(#peb3b0c2f05)" d="M 770.785325 295.356 
L 780.60163 295.356 
L 780.60163 290.734041 
L 770.785325 290.734041 
z
" style="fill:#0072b2;stroke:#ffffff;stroke-linejoin:miter;"/>
   </g>
   <g id="patch_78">
    <path clip-path="url(#peb3b0c2f05)" d="M 780.60163 295.356 
L 790.417935 295.356 
L 790.417935 290.734041 
L 780.60163 290.734041 
z
" style="fill:#0072b2;stroke:#ffffff;stroke-linejoin:miter;"/>
   </g>
   <g id="patch_79">
    <path clip-path="url(#peb3b0c2f05)" d="M 790.417935 295.356 
L 800.23424 295.356 
L 800.23424 290.734041 
L 790.417935 290.734041 
z
" style="fill:#0072b2;stroke:#ffffff;stroke-linejoin:miter;"/>
   </g>
   <g id="patch_80">
    <path clip-path="url(#peb3b0c2f05)" d="M 800.23424 295.356 
L 810.050545 295.356 
L 810.050545 286.112083 
L 800.23424 286.112083 
z
" style="fill:#0072b2;stroke:#ffffff;stroke-linejoin:miter;"/>
   </g>
   <g id="patch_81">
    <path clip-path="url(#peb3b0c2f05)" d="M 810.050545 295.356 
L 819.86685 295.356 
L 819.86685 286.112083 
L 810.050545 286.112083 
z
" style="fill:#0072b2;stroke:#ffffff;stroke-linejoin:miter;"/>
   </g>
   <g id="patch_82">
    <path clip-path="url(#peb3b0c2f05)" d="M 819.86685 295.356 
L 829.683155 295.356 
L 829.683155 281.490124 
L 819.86685 281.490124 
z
" style="fill:#0072b2;stroke:#ffffff;stroke-linejoin:miter;"/>
   </g>
   <g id="patch_83">
    <path clip-path="url(#peb3b0c2f05)" d="M 829.683155 295.356 
L 839.49946 295.356 
L 839.49946 286.112083 
L 829.683155 286.112083 
z
" style="fill:#0072b2;stroke:#ffffff;stroke-linejoin:miter;"/>
   </g>
   <g id="patch_84">
    <path clip-path="url(#peb3b0c2f05)" d="M 839.49946 295.356 
L 849.315765 295.356 
L 849.315765 281.490124 
L 839.49946 281.490124 
z
" style="fill:#0072b2;stroke:#ffffff;stroke-linejoin:miter;"/>
   </g>
   <g id="patch_85">
    <path clip-path="url(#peb3b0c2f05)" d="M 849.315765 295.356 
L 859.13207 295.356 
L 859.13207 286.112083 
L 849.315765 286.112083 
z
" style="fill:#0072b2;stroke:#ffffff;stroke-linejoin:miter;"/>
   </g>
   <g id="patch_86">
    <path clip-path="url(#peb3b0c2f05)" d="M 859.13207 295.356 
L 868.948375 295.356 
L 868.948375 272.246207 
L 859.13207 272.246207 
z
" style="fill:#0072b2;stroke:#ffffff;stroke-linejoin:miter;"/>
   </g>
   <g id="patch_87">
    <path clip-path="url(#peb3b0c2f05)" d="M 868.948375 295.356 
L 878.76468 295.356 
L 878.76468 263.002289 
L 868.948375 263.002289 
z
" style="fill:#0072b2;stroke:#ffffff;stroke-linejoin:miter;"/>
   </g>
   <g id="patch_88">
    <path clip-path="url(#peb3b0c2f05)" d="M 878.76468 295.356 
L 888.580985 295.356 
L 888.580985 267.624248 
L 878.76468 267.624248 
z
" style="fill:#0072b2;stroke:#ffffff;stroke-linejoin:miter;"/>
   </g>
   <g id="patch_89">
    <path clip-path="url(#peb3b0c2f05)" d="M 888.580985 295.356 
L 898.39729 295.356 
L 898.39729 239.892496 
L 888.580985 239.892496 
z
" style="fill:#0072b2;stroke:#ffffff;stroke-linejoin:miter;"/>
   </g>
   <g id="patch_90">
    <path clip-path="url(#peb3b0c2f05)" d="M 898.39729 295.356 
L 908.213595 295.356 
L 908.213595 165.941157 
L 898.39729 165.941157 
z
" style="fill:#0072b2;stroke:#ffffff;stroke-linejoin:miter;"/>
   </g>
   <g id="patch_91">
    <path clip-path="url(#peb3b0c2f05)" d="M 908.213595 295.356 
L 918.0299 295.356 
L 918.0299 152.075281 
L 908.213595 152.075281 
z
" style="fill:#0072b2;stroke:#ffffff;stroke-linejoin:miter;"/>
   </g>
   <g id="patch_92">
    <path clip-path="url(#peb3b0c2f05)" d="M 918.0299 295.356 
L 927.846205 295.356 
L 927.846205 50.39219 
L 918.0299 50.39219 
z
" style="fill:#0072b2;stroke:#ffffff;stroke-linejoin:miter;"/>
   </g>
   <g id="patch_93">
    <path clip-path="url(#peb3b0c2f05)" d="M 927.846205 295.356 
L 937.66251 295.356 
L 937.66251 230.648579 
L 927.846205 230.648579 
z
" style="fill:#0072b2;stroke:#ffffff;stroke-linejoin:miter;"/>
   </g>
   <g id="patch_94">
    <path clip-path="url(#peb3b0c2f05)" d="M 937.66251 295.356 
L 947.478815 295.356 
L 947.478815 272.246207 
L 937.66251 272.246207 
z
" style="fill:#0072b2;stroke:#ffffff;stroke-linejoin:miter;"/>
   </g>
   <g id="patch_95">
    <path clip-path="url(#peb3b0c2f05)" d="M 947.478815 295.356 
L 957.29512 295.356 
L 957.29512 295.356 
L 947.478815 295.356 
z
" style="fill:#0072b2;stroke:#ffffff;stroke-linejoin:miter;"/>
   </g>
   <g id="patch_96">
    <path clip-path="url(#peb3b0c2f05)" d="M 957.29512 295.356 
L 967.111425 295.356 
L 967.111425 295.356 
L 957.29512 295.356 
z
" style="fill:#0072b2;stroke:#ffffff;stroke-linejoin:miter;"/>
   </g>
   <g id="patch_97">
    <path clip-path="url(#peb3b0c2f05)" d="M 967.111425 295.356 
L 976.92773 295.356 
L 976.92773 290.734041 
L 967.111425 290.734041 
z
" style="fill:#0072b2;stroke:#ffffff;stroke-linejoin:miter;"/>
   </g>
   <g id="patch_98">
    <path clip-path="url(#peb3b0c2f05)" d="M 976.92773 295.356 
L 986.744035 295.356 
L 986.744035 295.356 
L 976.92773 295.356 
z
" style="fill:#0072b2;stroke:#ffffff;stroke-linejoin:miter;"/>
   </g>
   <g id="patch_99">
    <path clip-path="url(#peb3b0c2f05)" d="M 986.744035 295.356 
L 996.56034 295.356 
L 996.56034 295.356 
L 986.744035 295.356 
z
" style="fill:#0072b2;stroke:#ffffff;stroke-linejoin:miter;"/>
   </g>
   <g id="patch_100">
    <path clip-path="url(#peb3b0c2f05)" d="M 996.56034 295.356 
L 1006.376645 295.356 
L 1006.376645 295.356 
L 996.56034 295.356 
z
" style="fill:#0072b2;stroke:#ffffff;stroke-linejoin:miter;"/>
   </g>
   <g id="patch_101">
    <path clip-path="url(#peb3b0c2f05)" d="M 1006.376645 295.356 
L 1016.19295 295.356 
L 1016.19295 290.734041 
L 1006.376645 290.734041 
z
" style="fill:#0072b2;stroke:#ffffff;stroke-linejoin:miter;"/>
   </g>
   <g id="patch_102">
    <path clip-path="url(#peb3b0c2f05)" d="M 1016.19295 295.356 
L 1026.009255 295.356 
L 1026.009255 295.356 
L 1016.19295 295.356 
z
" style="fill:#0072b2;stroke:#ffffff;stroke-linejoin:miter;"/>
   </g>
   <g id="patch_103">
    <path clip-path="url(#peb3b0c2f05)" d="M 1026.009255 295.356 
L 1035.82556 295.356 
L 1035.82556 295.356 
L 1026.009255 295.356 
z
" style="fill:#0072b2;stroke:#ffffff;stroke-linejoin:miter;"/>
   </g>
   <g id="patch_104">
    <path clip-path="url(#peb3b0c2f05)" d="M 1035.82556 295.356 
L 1045.641865 295.356 
L 1045.641865 295.356 
L 1035.82556 295.356 
z
" style="fill:#0072b2;stroke:#ffffff;stroke-linejoin:miter;"/>
   </g>
   <g id="patch_105">
    <path clip-path="url(#peb3b0c2f05)" d="M 1045.641865 295.356 
L 1055.45817 295.356 
L 1055.45817 295.356 
L 1045.641865 295.356 
z
" style="fill:#0072b2;stroke:#ffffff;stroke-linejoin:miter;"/>
   </g>
   <g id="patch_106">
    <path clip-path="url(#peb3b0c2f05)" d="M 1055.45817 295.356 
L 1065.274475 295.356 
L 1065.274475 295.356 
L 1055.45817 295.356 
z
" style="fill:#0072b2;stroke:#ffffff;stroke-linejoin:miter;"/>
   </g>
   <g id="patch_107">
    <path clip-path="url(#peb3b0c2f05)" d="M 1065.274475 295.356 
L 1075.09078 295.356 
L 1075.09078 290.734041 
L 1065.274475 290.734041 
z
" style="fill:#0072b2;stroke:#ffffff;stroke-linejoin:miter;"/>
   </g>
   <g id="patch_108">
    <path clip-path="url(#peb3b0c2f05)" d="M 1075.09078 295.356 
L 1084.907085 295.356 
L 1084.907085 295.356 
L 1075.09078 295.356 
z
" style="fill:#0072b2;stroke:#ffffff;stroke-linejoin:miter;"/>
   </g>
   <g id="patch_109">
    <path clip-path="url(#peb3b0c2f05)" d="M 1084.907085 295.356 
L 1094.72339 295.356 
L 1094.72339 295.356 
L 1084.907085 295.356 
z
" style="fill:#0072b2;stroke:#ffffff;stroke-linejoin:miter;"/>
   </g>
   <g id="patch_110">
    <path clip-path="url(#peb3b0c2f05)" d="M 1094.72339 295.356 
L 1104.539695 295.356 
L 1104.539695 295.356 
L 1094.72339 295.356 
z
" style="fill:#0072b2;stroke:#ffffff;stroke-linejoin:miter;"/>
   </g>
   <g id="patch_111">
    <path clip-path="url(#peb3b0c2f05)" d="M 1104.539695 295.356 
L 1114.356 295.356 
L 1114.356 295.356 
L 1104.539695 295.356 
z
" style="fill:#0072b2;stroke:#ffffff;stroke-linejoin:miter;"/>
   </g>
   <g id="line2d_26">
    <path clip-path="url(#peb3b0c2f05)" d="M 918.0299 295.356 
L 918.0299 38.144 
" style="fill:none;stroke:#252525;stroke-dasharray:5.55,2.4;stroke-dashoffset:0;stroke-width:1.5;"/>
   </g>
   <g id="patch_112">
    <path d="M 623.54075 295.356 
L 623.54075 38.144 
" style="fill:none;stroke:#262626;stroke-linecap:square;stroke-linejoin:miter;stroke-width:1.25;"/>
   </g>
   <g id="patch_113">
    <path d="M 1114.356 295.356 
L 1114.356 38.144 
" style="fill:none;stroke:#262626;stroke-linecap:square;stroke-linejoin:miter;stroke-width:1.25;"/>
   </g>
   <g id="patch_114">
    <path d="M 623.54075 295.356 
L 1114.356 295.356 
" style="fill:none;stroke:#262626;stroke-linecap:square;stroke-linejoin:miter;stroke-width:1.25;"/>
   </g>
   <g id="patch_115">
    <path d="M 623.54075 38.144 
L 1114.356 38.144 
" style="fill:none;stroke:#262626;stroke-linecap:square;stroke-linejoin:miter;stroke-width:1.25;"/>
   </g>
   <g id="text_25">
    <text style="fill:#262626;font-family:DejaVu Sans;font-size:16.8px;font-style:normal;font-weight:normal;text-anchor:start;" transform="rotate(-0, 638.265207, 66.43732)" x="638.265207" y="66.43732">n=124</text>
   </g>
   <g id="text_26">
    <text style="fill:#262626;font-family:DejaVu Sans;font-size:16.8px;font-style:normal;font-weight:normal;text-anchor:end;" transform="rotate(-0, 1099.631543, 66.43732)" x="1099.631543" y="66.43732">n=75</text>
   </g>
   <g id="text_27">
    <text style="fill:#262626;font-family:DejaVu Sans;font-size:16.8px;font-style:normal;font-weight:normal;text-anchor:middle;" transform="rotate(-0, 868.948375, 32.144)" x="868.948375" y="32.144">35S::FPA:YFP vs Col-0</text>
   </g>
  </g>
 </g>
 <defs>
  <clipPath id="p8001ab160e">
   <rect height="257.212" width="490.81525" x="69.144" y="38.144"/>
  </clipPath>
  <clipPath id="peb3b0c2f05">
   <rect height="257.212" width="490.81525" x="623.54075" y="38.144"/>
  </clipPath>
 </defs>
</svg>
